<?xml version="1.0" encoding="UTF-8" standalone="no"?>
<!-- Created with Inkscape (http://www.inkscape.org/) -->

<svg
   xmlns:dc="http://purl.org/dc/elements/1.1/"
   xmlns:cc="http://creativecommons.org/ns#"
   xmlns:rdf="http://www.w3.org/1999/02/22-rdf-syntax-ns#"
   xmlns:svg="http://www.w3.org/2000/svg"
   xmlns="http://www.w3.org/2000/svg"
   xmlns:xlink="http://www.w3.org/1999/xlink"
   xmlns:sodipodi="http://sodipodi.sourceforge.net/DTD/sodipodi-0.dtd"
   xmlns:inkscape="http://www.inkscape.org/namespaces/inkscape"
   width="74.822723"
   height="59.999992"
   id="svg2"
   version="1.1"
   inkscape:version="0.48.2 r9819"
   sodipodi:docname="image.svg">
  <defs
     id="defs4">
    <linearGradient
       id="linearGradient3667">
      <stop
         style="stop-color:#7b7a7b;stop-opacity:1;"
         offset="0"
         id="stop3669" />
      <stop
         style="stop-color:#525252;stop-opacity:1;"
         offset="1"
         id="stop3671" />
    </linearGradient>
    <linearGradient
       id="linearGradient3659">
      <stop
         style="stop-color:#32c2f6;stop-opacity:1;"
         offset="0"
         id="stop3661" />
      <stop
         style="stop-color:#2188ad;stop-opacity:1;"
         offset="1"
         id="stop3663" />
    </linearGradient>
    <inkscape:perspective
       sodipodi:type="inkscape:persp3d"
       inkscape:vp_x="0 : 526.18109 : 1"
       inkscape:vp_y="0 : 1000 : 0"
       inkscape:vp_z="744.09448 : 526.18109 : 1"
       inkscape:persp3d-origin="372.04724 : 350.78739 : 1"
       id="perspective10" />
    <inkscape:perspective
       id="perspective2824"
       inkscape:persp3d-origin="0.5 : 0.33333333 : 1"
       inkscape:vp_z="1 : 0.5 : 1"
       inkscape:vp_y="0 : 1000 : 0"
       inkscape:vp_x="0 : 0.5 : 1"
       sodipodi:type="inkscape:persp3d" />
    <linearGradient
       inkscape:collect="always"
       xlink:href="#linearGradient3659"
       id="linearGradient3665"
       x1="61.054001"
       y1="546.80756"
       x2="61.054001"
       y2="903.17749"
       gradientUnits="userSpaceOnUse"
       gradientTransform="matrix(0.16836439,0,0,0.16836439,50.77468,455.58512)" />
    <linearGradient
       inkscape:collect="always"
       xlink:href="#linearGradient3667"
       id="linearGradient3673"
       x1="61.420593"
       y1="939.82861"
       x2="61.420593"
       y2="991.30688"
       gradientUnits="userSpaceOnUse" />
  </defs>
  <sodipodi:namedview
     id="base"
     pagecolor="#ffffff"
     bordercolor="#666666"
     borderopacity="1.0"
     inkscape:pageopacity="0.0"
     inkscape:pageshadow="2"
     inkscape:zoom="1"
     inkscape:cx="203.48134"
     inkscape:cy="-5.3662332"
     inkscape:document-units="px"
     inkscape:current-layer="layer1"
     showgrid="false"
     units="px"
     inkscape:window-width="683"
     inkscape:window-height="441"
     inkscape:window-x="2128"
     inkscape:window-y="66"
     inkscape:window-maximized="0"
     fit-margin-top="0"
     fit-margin-left="0"
     fit-margin-right="0"
     fit-margin-bottom="0" />
  <metadata
     id="metadata7">
    <rdf:RDF>
      <cc:Work
         rdf:about="">
        <dc:format>image/svg+xml</dc:format>
        <dc:type
           rdf:resource="http://purl.org/dc/dcmitype/StillImage" />
        <dc:title />
      </cc:Work>
    </rdf:RDF>
  </metadata>
  <g
     inkscape:label="Capa 1"
     inkscape:groupmode="layer"
     id="layer1"
     transform="translate(-61.054,-547.64806)">
    <path
       id="path2830"
       style="fill:url(#linearGradient3665);fill-opacity:1;fill-rule:nonzero;stroke:none"
       d="m 76.009249,547.64864 c -2.224888,0.0227 -4.46591,0.71121 -6.404301,2.11955 -4.961424,3.60385 -6.062412,10.54815 -2.458772,15.50876 0.431187,0.59314 0.913136,1.13233 1.430234,1.61336 0,0 -2.115448,20.12275 -2.115448,20.12275 -2.894176,1.73133 -4.96564,4.7599 -5.345344,8.37218 -0.640513,6.09745 3.785322,11.56025 9.884215,12.20107 6.098689,0.64123 11.559843,-3.78532 12.201898,-9.8836 0.37888,-3.6135 -1.02001,-7.00216 -3.490705,-9.29991 0,0 1.230978,-11.69938 1.230978,-11.69938 0,0 6.910504,9.51426 6.910504,9.51426 -1.362515,4.41423 0.142018,9.39404 4.087338,12.26068 4.960808,3.60405 11.904304,2.50204 15.508964,-2.45888 2.13395,-2.93774 2.61918,-6.57016 1.62857,-9.79481 0,0 6.9105,-9.51694 6.9105,-9.51694 0,0 1.23108,11.69507 1.23108,11.69507 -2.47059,2.29775 -3.86958,5.68641 -3.4906,9.29991 0.64102,6.09828 6.10711,10.52483 12.20601,9.8836 6.09889,-0.64082 10.52112,-6.10362 9.88071,-12.20107 -0.38062,-3.61228 -2.45188,-6.64085 -5.34523,-8.37218 0,0 -2.11545,-20.12275 -2.11545,-20.12275 2.47059,-2.29672 3.87041,-5.68548 3.48978,-9.2994 -0.64041,-6.099 -6.10649,-10.52102 -12.20519,-9.8798 -6.0991,0.64021 -10.52133,6.10228 -9.8799,12.2019 0.0775,0.73166 0.22032,1.43784 0.42852,2.11452 0,0 -11.718403,16.13314 -11.718403,16.13314 0,0 -11.726934,-16.13981 -11.726934,-16.13981 0.989799,-3.22322 0.506409,-6.85677 -1.627535,-9.79471 -2.196321,-3.02325 -5.633178,-4.61307 -9.105489,-4.57751 z m -0.06998,3.70074 c 0.09608,-0.002 0.192472,-8.4e-4 0.288553,0 2.253867,0.0313 4.46365,1.08691 5.889774,3.05017 1.785173,2.45651 1.841896,5.63914 0.397994,8.09976 0,0 12.054436,16.59638 12.054436,16.59638 -1.830285,0.68347 -3.499132,1.85618 -4.792591,3.48249 0,0 -12.057927,-16.59577 -12.057927,-16.59577 -2.785247,0.61092 -5.794103,-0.42523 -7.577117,-2.87918 -2.402975,-3.30748 -1.671517,-7.93646 1.636065,-10.33964 1.259753,-0.91448 2.713726,-1.37701 4.160813,-1.41421 z m 44.844701,0 c 3.75223,-0.0134 6.97811,2.81505 7.37889,6.6272 0.31753,3.01913 -1.2276,5.80602 -3.70847,7.21508 0,0 2.55589,24.29467 2.55589,24.29467 2.71866,0.86195 4.80944,3.26493 5.12595,6.28365 0.42769,4.06607 -2.52115,7.70711 -6.5866,8.1346 -4.06689,0.42871 -7.71143,-2.52218 -8.13912,-6.5866 -0.31713,-3.01996 1.22779,-5.80685 3.70927,-7.21674 0,0 -2.55176,-24.29445 -2.55176,-24.29445 -2.7201,-0.86217 -4.80944,-3.26442 -5.12739,-6.28366 -0.4281,-4.06617 2.52094,-7.70711 6.58824,-8.13398 0.25382,-0.027 0.50436,-0.0389 0.7551,-0.0397 z m -44.610918,4.19216 c -0.66836,-0.009 -1.34669,0.19298 -1.928217,0.61574 -1.433317,1.04119 -1.750747,3.04709 -0.709466,4.48051 1.041899,1.4328 3.047907,1.75012 4.480298,0.70802 1.433831,-1.04045 1.750952,-3.04616 0.709055,-4.47978 -0.617906,-0.85138 -1.574512,-1.31124 -2.55167,-1.32449 z m 44.623658,0 c -0.10914,6.7e-4 -0.22218,0.008 -0.33171,0.0191 -1.76278,0.18579 -3.03682,1.76441 -2.85205,3.52553 0.18477,1.76257 1.76441,3.04184 3.52533,2.85698 1.76175,-0.18651 3.03784,-1.76452 2.85287,-3.52626 -0.17367,-1.65189 -1.56937,-2.88061 -3.19444,-2.87536 z m -8.68006,10.12869 c 0.83195,1.04271 1.84622,1.928 2.98687,2.61065 0,0 0.30807,2.92623 0.30807,2.92623 0,0 -10.56161,14.53952 -10.56161,14.53952 1.44277,2.45928 1.39056,5.64489 -0.39317,8.09965 -2.40318,3.30728 -7.036491,4.03976 -10.343147,1.63597 -3.307791,-2.40339 -4.040069,-7.03218 -1.636068,-10.33996 1.782809,-2.45539 4.794335,-3.49143 7.581435,-2.87897 0,0 12.05762,-16.59309 12.05762,-16.59309 z m -40.05046,3.41301 c 1.243824,0.48791 2.565953,0.74512 3.896817,0.76804 0,0 1.729576,2.37923 1.729576,2.37923 0,0 -1.881665,17.87073 -1.881665,17.87073 2.481792,1.40989 4.025784,4.19678 3.709382,7.21674 -0.428619,4.06442 -4.068839,7.01531 -8.134907,6.5866 -4.066271,-0.42749 -7.015113,-4.06853 -6.587421,-8.1346 0.316301,-3.01872 2.406572,-5.4217 5.125847,-6.28365 0,0 2.142371,-20.40309 2.142371,-20.40309 z m 26.359959,17.20021 c -0.977056,0.014 -1.937361,0.47394 -2.555882,1.32562 -1.041181,1.43251 -0.723955,3.43881 0.70967,4.48 1.433521,1.04117 3.437573,0.72343 4.479573,-0.70948 1.04139,-1.43372 0.72489,-3.43921 -0.70885,-4.48039 -0.582036,-0.42297 -1.256356,-0.62438 -1.924511,-0.61575 z m -26.257815,7.0519 c -1.62579,-0.007 -3.024991,1.21958 -3.198655,2.87198 -0.184869,1.76134 1.09338,3.33934 2.856152,3.52595 1.761125,0.18456 3.336253,-1.09461 3.521121,-2.85635 0.185587,-1.76174 -1.089376,-3.34098 -2.852042,-3.52513 -0.109647,-0.0127 -0.217649,-0.0165 -0.326576,-0.0165 z m 52.597426,0 c -0.1079,0 -0.21682,0.004 -0.32657,0.0165 -1.76277,0.18415 -3.04194,1.76338 -2.85616,3.52513 0.18559,1.76174 1.76339,3.04091 3.52513,2.85635 1.76216,-0.18662 3.04195,-1.76461 2.85636,-3.52595 -0.17387,-1.6524 -1.57286,-2.87856 -3.19876,-2.87198 z"
       inkscape:connector-curvature="0" />
  </g>
</svg>
